<?xml version="1.0" encoding="utf-8"?>
<!-- Generator: Adobe Illustrator 26.2.1, SVG Export Plug-In . SVG Version: 6.00 Build 0)  -->
<svg version="1.1" id="Layer_1" xmlns="http://www.w3.org/2000/svg" xmlns:xlink="http://www.w3.org/1999/xlink" x="0px" y="0px"
	 viewBox="0 0 826.73 826.73" style="enable-background:new 0 0 826.73 826.73;" xml:space="preserve">
<g>
	<path style="fill:#EAEAEA;stroke:#000000;stroke-width:5;stroke-miterlimit:10;" d="M533.24,16.91c-18.1-1.02-35.39-2-52.68-2.97
		c-0.15,1.14-0.3,2.28-0.45,3.43c6.16,1.19,12.32,2.44,18.49,3.57c74.46,13.66,136.53,48.58,182.98,108.87
		c10.01,12.99,16.05,29.03,22.13,44.87c-12.03-13.55-22.42-28.15-39.75-35.58c34.38,36.36,62.08,76.45,74.19,125.86
		c12.05,49.18,7.49,97.62-5.46,147.65c-4.07-20.66-6.74-39.93-11.87-58.53c-5.13-18.62-12.72-36.57-19.24-54.81
		c-0.84,0.17-1.68,0.34-2.52,0.51c-0.06,0.97-0.35,1.99-0.16,2.91c13.08,63.58,4.02,124.84-18.92,184.78
		c-5.89,15.4-11.63,30.99-15.64,46.94c-3.99,15.83-5.71,32.24-8.86,50.96c-14.33-15.45-28.22-30.44-42.29-45.62
		c11.75,28.99,28.33,55.27,46.74,80.64c-31.12-21.51-60.45-44.76-83.31-75.21c-0.77,0.43-1.53,0.86-2.3,1.29
		c5.36,10.48,10.37,21.16,16.19,31.39c6.03,10.6,12.84,20.76,18.68,33.34c-21.57-7.13-43.49-13.38-64.58-21.72
		c-12.1-4.78-19.33-16.12-23.13-28.46c-4.17-13.54-7.14-27.47-10.38-41.28c-9.11-38.89-22.01-76.39-45.34-109.12
		c-8.83-12.39-20.14-23.97-32.61-32.6c-24.58-17.01-50.18-9.42-59.98,18.66c-6.97,19.97-9.7,41.65-12.43,62.8
		c-1.83,14.23-0.35,28.89-0.35,43.5c-16.71,0-31.4,0-46.18,0c-1.37-13.53-1.72-26.39-4.11-38.86
		c-8.67-45.27-36.96-76.6-74.36-100.64c-7.78-5-9.29-9.86-9.52-18.82c-0.52-19.69,8.43-29.72,26.24-35.78
		c21.48-7.31,42.34-16.46,63.23-26.23c-25.51,5.25-51.02,10.49-76.53,15.74c31.52-19.91,66.01-33.05,101.04-45
		c-0.22-0.83-0.43-1.67-0.65-2.5c-33.5,7.39-67,14.77-100.49,22.16c95.93-48.1,198.4-69.63,304.92-77.25
		c-4.89-0.43-9.82-1.54-14.65-1.2c-51.03,3.68-102.22,6.07-153.03,11.84c-53.15,6.04-105.17,18.49-156.5,34.06
		c-22.14,6.72-36.85,18.28-44.58,40.06c-7.7,21.72-16.67,42.98-25.86,66.44c14.06-0.26,25.9,1.18,34.64,11.53
		c-1.31-3.02-2.62-6.04-3.93-9.06c0.45-0.39,0.91-0.78,1.36-1.17c4.05,3.59,8.1,7.17,13.39,11.85c-0.8-3.44-1.26-5.45-1.73-7.46
		c0.55-0.49,1.1-0.97,1.66-1.46c5.06,5.81,10.11,11.62,15.17,17.43c-0.4,0.99-0.8,1.98-1.19,2.96c-16.3,0-32.59,0-50.6,0
		c2.79,10.94,5.73,19.67,7.02,28.64c0.71,4.94,0.2,11.25-2.36,15.29c-18.54,29.32-37.73,58.23-56.74,87.25
		c-7.48,11.43-6.91,17.93,5.36,22.58c15.61,5.92,32.04,10.28,48.5,12.98c5.91,0.97,12.92-4.83,20.86-8.13
		c3.41,5.62,4.52,13.21-2.76,21.04c10,3.57,19.38,6.46,28.37,10.28c5.72,2.43,11.92,5.2,16.06,9.57
		c14.6,15.41,30.79,11.46,47.47,5.39c2.46-0.9,4.79-2.17,7.19-3.23c0.24-0.11,0.6,0.06,2.65,0.33
		c-5.03,10.49-9.84,20.54-14.66,30.58c20.05-19.44,37.69-40.4,44.75-68.3c4.16-16.44,4.14-16.44,21.34-16.43
		c7.87,0.01,15.73,0,24.74,0c-1.13,9.71-3.24,18.44-2.95,27.08c0.99,30.33,1.79,60.72,4.55,90.92
		c4.49,48.99-10.63,88.45-52.15,116.42c-15,10.11-30.17,19.98-45.26,29.96c-0.65-0.56-1.3-1.11-1.95-1.67
		c4.56-9.37,9.11-18.74,13.67-28.11c-0.42-0.28-0.85-0.56-1.27-0.84c-11.67,10.77-22.89,22.1-35.16,32.13
		c-8.36,6.84-17.91,12.42-27.48,17.51c-6.01,3.2-12.92,5.22-19.66,6.47c-41.15,7.67-68.38-22.85-55.7-62.54
		c5.72-17.9,13.82-35.15,18.28-53.32c3.4-13.87,3.4-28.71,3.56-43.14c0.05-4.38-3.32-10.49-7.02-12.9
		c-11.26-7.34-12.55-17.74-11.92-29.44c0.15-2.78,0.69-6.83-0.83-8.18c-8.98-7.96-8.61-17.97-7.57-28.39
		c0.43-4.27,1.21-8.7,0.49-12.83c-0.5-2.86-2.72-6.48-5.19-7.72c-6.45-3.25-13.47-5.38-20.26-7.96
		c-20.42-7.77-26.25-24.23-14.57-43.22c13.5-21.95,26.34-44.49,41.91-64.91c13.62-17.85,18.72-34.38,8.02-55.36
		c-7.78-15.27-6.84-31.46-0.9-47.91c5.37-14.85,7.49-30.89,13.06-45.65c5.48-14.54,3.06-27.48-2.43-40.95
		c-13.58-33.32-18.23-67.55-8.37-102.72c11.8-42.11,39.3-71.05,77.68-90.37c22.9-11.53,47.23-18.35,73.42-20.38
		c-33.22,22.99-59.89,50.84-71.14,90.85C260.38,57.86,317.6,16.77,393.95,4.21C447.13-4.54,503.51,0.66,533.24,16.91z
		 M710.91,272.23c-0.19,0.29,0.18-0.03,0.12-0.21c-0.31-0.93-0.7-1.84-1.11-2.74c-33.35-73.04-89.74-114.94-169.49-124.8
		c-50.26-6.21-99.61,0.41-148.24,12.79c-27.73,7.06-55.02,15.84-82.5,23.85c0.23,0.91,0.47,1.81,0.7,2.72
		c4.74-0.98,9.48-1.92,14.21-2.95c67.43-14.71,135.29-24.74,204.56-17.43c57.43,6.06,109.79,24.18,150.19,67.7
		C691.08,243.8,700.53,258.58,710.91,272.23z M149.16,576.55c-0.61,1.16-1.23,2.32-1.84,3.49c0.61,1.77,0.75,4.68,1.89,5.14
		c12.86,5.22,25.87,10.06,40.56,15.65c-7.73,0-13.99,0.64-20.07-0.15c-9.34-1.21-12.37,4.65-14.09,11.67
		c-1.76,7.21,3.26,10.99,8.93,13.51c4.91,2.19,10.13,3.66,17.51,6.25c-6.43,0.95-10.44,1.54-14.88,2.19
		c1.08,7.77,1.82,14.93,3.1,21.99c2.31,12.73,6.68,17.35,16.17,17.82c11.45,0.56,19.35-5.1,21.83-17.15
		c3.8-18.5,1.88-36.91-5.04-54.31c-2.24-5.63-7.61-11.85-13.04-14C176.98,583.43,162.89,580.44,149.16,576.55z M609.07,111.66
		c-72.2-54.97-185.19-51.42-241.3-17.17c41.05-9.59,81.26-12.12,121.97-8.58C530.68,89.47,570.16,99.28,609.07,111.66z M365.1,57.67
		c-54.67,7.72-126.77,76.94-126.07,118.82c18-20.25,36.24-43.8,57.64-64C318.1,92.28,342.68,75.41,365.1,57.67z M173.67,227.46
		c-1.53-46.8,5.48-91.53,23.11-137.12C164.95,125.17,150.01,213.81,173.67,227.46z"/>
	<path style="fill:#EAEAEA;stroke:#000000;stroke-width:5;stroke-miterlimit:10;" d="M673.46,702.18
		c-52.19,19.33-104.82,37.56-156.44,58.3c-51.68,20.76-102.36,44.03-153.6,66.25c-0.01-14.29,12.11-28.74,4.34-44.62
		c-7.16-14.64-19.44-23.71-35.5-29.99c11.88-7.93,22.79-15.21,34.86-23.26c6.1,19.28,11.97,37.85,18.26,57.76
		C479.36,747.62,571.47,707.42,673.46,702.18z"/>
	<path style="fill:#EAEAEA;stroke:#000000;stroke-width:5;stroke-miterlimit:10;" d="M375.89,571.08c3.05-2.71,5.97-5.57,9.16-8.09
		c7.78-6.12,16.39-11.38,23.34-18.31c6.66-6.65,13.75-14.18,16.96-22.71c9.67-25.7,16.05-52.42,14.7-80.23
		c-1.08-22.25-10.31-32.74-31.94-38.13c-2.45-0.61-4.85-1.41-8.18-2.4c18.97-6.19,40.35,1.88,51.32,19.6
		c9.1,14.71,13.34,30.75,9.64,48.28c-3.07,14.52-5.84,29.1-8.7,43.67c-3.67,18.69-14.01,32.46-30.63,41.58
		c-10.71,5.88-21.31,11.97-32.25,17.39c-3.61,1.78-8.12,1.74-12.21,2.53C376.7,573.2,376.29,572.14,375.89,571.08z"/>
	<path style="fill:#EAEAEA;stroke:#000000;stroke-width:5;stroke-miterlimit:10;" d="M375.33,687.13c0-12.95-0.16-23.42,0.16-33.88
		c0.05-1.73,1.87-3.99,3.5-4.99c17.64-10.83,36.87-19.67,52.73-32.64c15.5-12.68,27.6-29.51,41.17-44.5
		c1.06,10.9-2.35,22.1-8.07,32.25c-4.8,8.52-11.15,16.26-17.45,23.82c-3.97,4.77-8.92,8.8-13.76,12.76
		C414.78,655.33,395.82,670.56,375.33,687.13z"/>
	<path style="fill:#EAEAEA;stroke:#000000;stroke-width:5;stroke-miterlimit:10;" d="M417.84,438.99
		c-3.72-2.72-6.93-5.48-10.53-7.52c-1.76-1-5.28-1.65-6.22-0.69c-1.5,1.52-2.53,4.78-1.99,6.83c1.91,7.19,8.22,13.71,2.05,21.94
		c-0.61,0.81,2.7,4.79,4.46,7.09c2.18,2.84,5.64,5.12,6.69,8.26c0.97,2.92-0.49,6.66-0.88,10.04c-2.83-1.05-6.41-1.34-8.37-3.27
		c-13.35-13.16-26.03-26.83-21.07-48.06c2.75-11.77,9.54-18.33,18.04-17.64C409.53,416.73,417.45,426.65,417.84,438.99z"/>
	<path style="fill:#EAEAEA;stroke:#000000;stroke-width:5;stroke-miterlimit:10;" d="M405.83,507.34c-1.86,3.63-2.59,7.32-4.82,8.99
		c-6.77,5.07-14,9.59-21.37,13.75c-1.46,0.82-4.38-0.94-6.62-1.51c0.86-1.86,1.21-4.59,2.66-5.43c8.77-5.09,12.48-11.82,9.76-22.14
		c-0.62-2.37,1.8-7.83,3.3-8.02c3.52-0.44,8.29,0.4,10.76,2.68C402.52,498.43,403.73,503.21,405.83,507.34z"/>
</g>
</svg>
